<?xml version="1.0" encoding="UTF-8"?>
<svg id="Layer_1" data-name="Layer 1" xmlns="http://www.w3.org/2000/svg" viewBox="0 0 206 64.23">
  <defs>
    <style>
      .cls-1 {
        fill: #fff;
      }

      .cls-2 {
        fill: #8fb63e;
      }

      .cls-3 {
        fill: #28565a;
      }
    </style>
  </defs>
  <g>
    <path class="cls-3" d="m8.43,64.23h94.57V0H8.43C2.12,0,0,5.12,0,11.43v41.37c0,6.31,2.12,11.43,8.43,11.43Z"/>
    <path class="cls-2" d="m197.57,0h-94.57v64.23h94.57c6.31,0,8.43-5.12,8.43-11.43V11.43c0-6.31-2.12-11.43-8.43-11.43Z"/>
  </g>
  <g>
    <path class="cls-1" d="m53.25,14.16h14.93c1.28,0,2.45.31,3.5.94,1.05.63,1.89,1.47,2.52,2.51s.94,2.21.94,3.49v2.82c0,1.28-.31,2.44-.92,3.47s-1.45,1.85-2.51,2.46c-1.06.61-2.24.91-3.55.91l8.42,11.62h-5.1l-8.42-11.62h-3.24v-4.17h8.36c.78,0,1.44-.27,1.99-.8.54-.54.81-1.18.81-1.94v-2.76c0-.77-.27-1.42-.81-1.97-.54-.54-1.21-.81-1.99-.81h-10.74v24.07h-4.19V14.16Z"/>
    <path class="cls-1" d="m80.15,26.08c0-1.18.43-2.18,1.29-3.01s1.89-1.24,3.1-1.24h8.58c1.1,0,2.1.27,2.99.8s1.61,1.26,2.14,2.16c.54.91.8,1.91.8,3.01v.58c0,1.09-.27,2.08-.8,2.97s-1.25,1.61-2.14,2.14-1.89.8-2.99.8h-6.39v-4.17h6.43c.48,0,.88-.17,1.22-.52.34-.34.51-.76.51-1.25v-.56c0-.5-.17-.93-.51-1.27-.34-.34-.74-.52-1.22-.52h-8.82v10.56c0,.45.15.83.46,1.15.3.32.68.48,1.11.48h11.7v4.19h-11.7c-1.06,0-2.03-.26-2.9-.78-.87-.52-1.57-1.22-2.08-2.11-.52-.88-.77-1.85-.77-2.91v-10.52Z"/>
    <path class="cls-1" d="m103.62,14.16h4.19v28.24h-4.19V14.16Z"/>
    <path class="cls-1" d="m112.38,29.21c0-1.36.33-2.6,1-3.71.67-1.11,1.56-2,2.69-2.67,1.12-.67,2.37-1,3.73-1h11.48v20.57h-4.19v-16.38h-7.29c-.89,0-1.65.31-2.28.94s-.95,1.39-.95,2.29v5.68c0,.9.32,1.67.95,2.31.64.64,1.4.96,2.28.96h4.91v4.19h-4.91c-1.36,0-2.61-.33-3.73-1-1.13-.67-2.02-1.57-2.69-2.69-.67-1.12-1-2.37-1-3.73v-5.76Z"/>
    <path class="cls-1" d="m135.85,26.02c0-1.15.41-2.14,1.23-2.96.82-.82,1.81-1.23,2.96-1.23h7.29c1.36,0,2.61.33,3.73,1,1.12.67,2.02,1.56,2.69,2.67.67,1.11,1,2.35,1,3.71v5.76c0,1.36-.33,2.61-1,3.73-.67,1.12-1.57,2.02-2.69,2.69-1.12.67-2.37,1-3.73,1h-4.9v-4.19h4.9c.9,0,1.67-.32,2.29-.96.63-.64.94-1.41.94-2.31v-5.68c0-.9-.31-1.66-.94-2.29s-1.39-.94-2.29-.94h-7.29v24.05h-4.19v-24.05Z"/>
  </g>
</svg>